<svg width="32" height="32" viewBox="0 0 32 32" fill="none" xmlns="http://www.w3.org/2000/svg">
<g clip-path="url(#clip0)">
<path d="M31.4495 23.8724C31.4461 23.8664 31.4426 23.8605 31.439 23.8545L19.5167 3.95113C19.5155 3.94907 19.5142 3.94707 19.513 3.94501C18.944 3.00688 18.0437 2.34644 16.978 2.0855C15.9122 1.82438 14.8086 1.99419 13.8705 2.56326C13.3078 2.90463 12.83 3.38244 12.4887 3.94507C12.4875 3.94707 12.4863 3.94907 12.4851 3.95113L0.562747 23.8544C0.559184 23.8604 0.555684 23.8663 0.552247 23.8723C0.00355823 24.8225 -0.142255 25.9295 0.141683 26.9893C0.425622 28.0492 1.10519 28.935 2.05544 29.4837C2.66544 29.8359 3.36013 30.0261 4.06438 30.0339C4.06913 30.034 4.07388 30.034 4.07863 30.034H27.9232C27.928 30.034 27.9327 30.034 27.9374 30.0341C30.2022 30.0091 32.0246 28.1462 31.9997 25.8813C31.9919 25.177 31.8017 24.4822 31.4495 23.8724ZM27.915 27.4489H4.08682C3.82775 27.445 3.5725 27.3746 3.34806 27.2449C2.99588 27.0416 2.744 26.7132 2.63875 26.3204C2.53425 25.9304 2.58675 25.5232 2.78656 25.1727L14.7007 5.28314C14.827 5.0757 15.0036 4.89951 15.2113 4.77351C15.559 4.56263 15.9682 4.4997 16.3631 4.59645C16.7572 4.69295 17.0902 4.9367 17.3012 5.28307L29.2151 25.1726C29.3429 25.3968 29.4119 25.6515 29.4147 25.9096C29.424 26.7472 28.7517 27.4364 27.915 27.4489Z" fill="#0E0E0E"/>
<path d="M16.0006 10.5578C15.2867 10.5578 14.708 11.1365 14.708 11.8503V17.4807C14.708 18.1946 15.2868 18.7732 16.0006 18.7732C16.7145 18.7732 17.2931 18.1945 17.2931 17.4807V11.8503C17.2932 11.1365 16.7145 10.5578 16.0006 10.5578Z" fill="#0E0E0E"/>
<path d="M16.9146 22.197C16.6744 21.9563 16.3413 21.8184 16.0006 21.8184C15.6605 21.8184 15.3273 21.9564 15.0866 22.197C14.8464 22.4377 14.708 22.7709 14.708 23.111C14.708 23.4517 14.8464 23.7844 15.0866 24.025C15.3273 24.2657 15.6605 24.4035 16.0006 24.4035C16.3412 24.4035 16.6738 24.2657 16.9146 24.025C17.1553 23.7844 17.2932 23.4517 17.2932 23.111C17.2932 22.7709 17.1552 22.4377 16.9146 22.197Z" fill="#0E0E0E"/>
</g>
<defs>
<clipPath id="clip0">
<rect width="32" height="32" fill="white"/>
</clipPath>
</defs>
</svg>
