<svg xmlns="http://www.w3.org/2000/svg" width="217.397" height="96.408" viewBox="0 0 217.397 96.408">
  <defs>
    <style>
      .cls-1, .cls-4 {
        fill: #eb1c1c;
      }

      .cls-2 {
        fill: #1a1818;
      }

      .cls-3 {
        fill: none;
      }

      .cls-4 {
        font-size: 26px;
        font-family: Oswald;
        font-weight: 700;
      }

      .cls-5 {
        fill: #000;
      }
    </style>
  </defs>
  <g id="Group_5338" data-name="Group 5338" transform="translate(-246.603 -26)">
    <g id="Group_5337" data-name="Group 5337" transform="translate(246.603 26)">
      <path id="Path_2" data-name="Path 2" class="cls-1" d="M197.367,43.519c-.806-1.411-1.55-2.719-2.3-4.024-.392-.682-.775-1.369-1.2-2.026a.764.764,0,0,0-.561-.237c-1.648-.019-3.3-.039-4.943.012a1.214,1.214,0,0,0-.81.555c-1,1.63-1.958,3.283-2.909,4.94-.856,1.491-1.667,3.009-2.53,4.5-.887,1.528-1.827,3.025-2.716,4.552-.69,1.183-1.322,2.4-2.008,3.585-.9,1.552-1.831,3.082-2.732,4.632-.638,1.1-1.243,2.213-1.867,3.319-.531.941-1.088,1.868-1.589,2.825a.954.954,0,0,0-.021.774c.706,1.278,1.458,2.532,2.2,3.79.115.194.256.373.471.68.408-.641.764-1.164,1.083-1.709q1.741-2.972,3.459-5.956c.893-1.559,1.747-3.141,2.644-4.7.879-1.525,1.8-3.024,2.684-4.546.674-1.163,1.3-2.351,1.975-3.515.918-1.591,1.859-3.168,2.786-4.753.4-.684.758-1.4,1.2-2.05a1.135,1.135,0,0,1,.786-.448c1.967-.038,3.936-.014,5.9-.03a6.319,6.319,0,0,0,.995-.169" transform="translate(-137.401 -29.882)"/>
      <path id="Path_3" data-name="Path 3" class="cls-2" d="M147.992,267.766c.384.759.68,1.408,1.033,2.022.451.784.959,1.533,1.423,2.31a16.743,16.743,0,0,0,.928,1.626,1.4,1.4,0,0,0,.937.5c1.474.052,2.959-.067,4.425.055.922.077,1.089-.564,1.4-1.073,1-1.659,1.967-3.343,2.931-5.026.856-1.5,1.676-3.012,2.543-4.5.885-1.522,1.826-3.011,2.708-4.535.663-1.145,1.258-2.328,1.907-3.481s1.33-2.279,1.984-3.425c.545-.955,1.05-1.933,1.608-2.88.709-1.2,1.445-2.385,2.188-3.565a1.379,1.379,0,0,0,.09-1.571c-.847-1.389-1.7-2.776-2.572-4.206q-1.037,1.813-2.081,3.641c-.662,1.161-1.316,2.326-1.986,3.482q-1.385,2.391-2.789,4.77c-1.091,1.858-2.194,3.709-3.276,5.573-.649,1.118-1.258,2.259-1.9,3.378-.731,1.267-1.49,2.518-2.225,3.783a25.5,25.5,0,0,0-1.328,2.409,1.049,1.049,0,0,1-1.114.724c-2.212-.017-4.425-.007-6.825-.007" transform="translate(-118.842 -192.738)"/>
      <path id="Path_4" data-name="Path 4" class="cls-2" d="M101.012,114.069c-.658-1.206-1.227-2.287-1.831-3.347-.672-1.18-1.378-2.341-2.065-3.512q-1.348-2.3-2.69-4.594c-.687-1.183-1.358-2.375-2.045-3.558-.911-1.57-1.836-3.132-2.742-4.7-.683-1.186-1.34-2.387-2.021-3.574s-1.34-2.364-2.063-3.513a1.6,1.6,0,0,1,.048-2.122c.469-.692.868-1.431,1.279-2.16.588-1.043,1.158-2.095,1.762-3.19a3.036,3.036,0,0,0-.511-.087c-2.164.013-4.328.052-6.492.043-.671,0-.732.565-.952.925-.762,1.243-1.457,2.529-2.162,3.806a.59.59,0,0,0-.059.473q1.343,2.369,2.726,4.715c.889,1.5,1.823,2.973,2.7,4.479.7,1.2,1.329,2.446,2.023,3.651.88,1.527,1.8,3.029,2.69,4.552.675,1.16,1.311,2.344,1.983,3.506.921,1.591,1.864,3.169,2.789,4.757.6,1.036,1.179,2.088,1.8,3.114a.779.779,0,0,0,.554.329c1.695.025,3.39.015,5.279.015" transform="translate(-62.988 -64.005)"/>
      <path id="Path_5" data-name="Path 5" class="cls-1" d="M265.175,197.137h-5.814c.229.332.4.543.53.776.681,1.209,1.335,2.434,2.03,3.636.882,1.524,1.8,3.024,2.689,4.545.636,1.093,1.225,2.213,1.865,3.3.738,1.257,1.529,2.484,2.26,3.745.682,1.178,1.3,2.393,1.975,3.576.7,1.224,1.441,2.422,2.146,3.642.673,1.165,1.32,2.344,1.983,3.515a2.743,2.743,0,0,1,.366.6,1.4,1.4,0,0,1,.023.892c-.635,1.147-1.339,2.255-2.011,3.381-.4.679-.8,1.362-1.189,2.052a3.274,3.274,0,0,0-.186.6c2.4,0,4.709.008,7.018-.015a.8.8,0,0,0,.568-.337c.8-1.331,1.608-2.665,2.333-4.04a1.4,1.4,0,0,0-.038-1.144c-1.307-2.343-2.675-4.652-4.012-6.978-1.2-2.094-2.389-4.2-3.592-6.293q-1.467-2.553-2.958-5.091c-1.055-1.791-2.147-3.561-3.187-5.36-.948-1.639-1.85-3.305-2.8-5" transform="translate(-208.274 -158.306)"/>
      <path id="Path_6" data-name="Path 6" class="cls-1" d="M73.941,243H72.576q-10.994,0-21.988,0-4.016,0-8.031.008c-.339,0-.606.01-.83-.4-.845-1.532-1.763-3.024-2.656-4.529-.17-.286-.339-.574-.533-.844-.483-.672-.456-.649-.873.108-.87,1.579-1.77,3.142-2.676,4.7a1.685,1.685,0,0,0-.018,1.858c.731,1.24,1.41,2.511,2.144,3.749a.812.812,0,0,0,.595.3c.612.017,1.226-.061,1.839-.058,2.138.012,4.276.065,6.414.062,3.315,0,6.631-.054,9.946-.063,2.064-.005,4.128.048,6.192.042,2.5-.007,5-.047,7.5-.073a1.812,1.812,0,0,1,.587.011c.853.3,1.3-.19,1.654-.834.665-1.2,1.318-2.4,1.97-3.606a2.568,2.568,0,0,0,.126-.437" transform="translate(-27.866 -190.118)"/>
      <path id="Path_7" data-name="Path 7" class="cls-2" d="M218.666,162.327h.926c9.885,0,19.77.036,29.655-.044a2.3,2.3,0,0,1,2.325,1.52c.7,1.3,1.495,2.559,2.239,3.841.21.362.387.745.647,1.251,1.131-1.993,2.134-3.846,3.227-5.644a1.367,1.367,0,0,0,0-1.777c-.786-1.138-1.369-2.415-2.07-3.614a1.49,1.49,0,0,0-.6-.431c-.1-.052-.241-.011-.364-.011q-16.266,0-32.532-.01a1.178,1.178,0,0,0-1.187.72c-.685,1.263-1.449,2.482-2.171,3.725a1.659,1.659,0,0,0-.088.475" transform="translate(-175.595 -126.399)"/>
      <path id="Path_8" data-name="Path 8" class="cls-2" d="M318.869,223.631c.289-.462.527-.828.752-1.2.533-.885,1.08-1.763,1.584-2.665a1.587,1.587,0,0,0,.18-1.779c-1.14-1.877-2.23-3.784-3.326-5.688-.667-1.16-1.294-2.343-1.966-3.5-.864-1.486-1.763-2.951-2.633-4.434-.484-.825-.931-1.673-1.411-2.5a32.068,32.068,0,0,1-2.2-3.842c-.484-1.194-1.267-1.2-2.261-1.172-1.3.042-2.6.01-4.173.01l15.454,26.771" transform="translate(-243.65 -158.069)"/>
      <path id="Path_9" data-name="Path 9" class="cls-2" d="M74.938,144.873,59.463,118.066c-.391.647-.713,1.173-1.028,1.7-.536.9-1.095,1.793-1.584,2.72a1.168,1.168,0,0,0-.07.945c1.047,1.845,2.166,3.65,3.231,5.485,1.083,1.867,2.117,3.762,3.2,5.632.872,1.511,1.791,3,2.667,4.5.686,1.18,1.338,2.381,2.007,3.571.386.687.762,1.381,1.18,2.048a.687.687,0,0,0,.509.191c1.718.014,3.437.008,5.367.008" transform="translate(-45.539 -94.81)"/>
      <path id="Path_10" data-name="Path 10" class="cls-2" d="M152.025,64.011l15.437-26.753c-1.883,0-3.669-.008-5.455.014a.652.652,0,0,0-.44.308c-.968,1.648-1.907,3.313-2.874,4.962-1.107,1.889-2.244,3.759-3.349,5.65-.686,1.175-1.323,2.379-2,3.558-.895,1.548-1.816,3.08-2.717,4.625a22.217,22.217,0,0,0-1.174,2.138,1.39,1.39,0,0,0,0,1.079c.8,1.455,1.664,2.871,2.578,4.42" transform="translate(-119.924 -29.918)"/>
      <path id="Path_11" data-name="Path 11" class="cls-2" d="M226.654,278.43l-15.466,26.658c1.927,0,3.672.017,5.415-.021a.966.966,0,0,0,.623-.465q1.4-2.313,2.738-4.659c.477-.833.888-1.7,1.371-2.534.921-1.581,1.885-3.135,2.806-4.716.711-1.219,1.373-2.467,2.074-3.692,1.027-1.8,2.077-3.579,3.094-5.381a.734.734,0,0,0-.01-.613c-.858-1.52-1.744-3.025-2.646-4.576" transform="translate(-169.59 -223.587)"/>
      <path id="Path_12" data-name="Path 12" class="cls-2" d="M55.673,306.56c.315.573.547,1.008.793,1.436.534.929,1.116,1.834,1.6,2.789a1.074,1.074,0,0,0,1.109.706q11.88-.03,23.759,0a1.229,1.229,0,0,0,1.268-.821c.622-1.227,1.368-2.392,2.056-3.586a2.036,2.036,0,0,0,.117-.427c-.27-.016-.5-.016-.731-.045-1.67-.208-3.339.054-5.008,0-1.895-.059-3.79-.177-5.684-.169-2.909.012-5.818.142-8.727.161-3.208.021-6.417-.025-9.626-.042-.243,0-.486,0-.923,0" transform="translate(-44.707 -246.08)"/>
      <path id="Path_13" data-name="Path 13" class="cls-2" d="M240.282,123.978h30.844c-.621-1.108-1.193-2.148-1.784-3.176a8.725,8.725,0,0,1-.75-1.2c-.184-.5-.506-.493-.915-.493q-11.839.009-23.678-.006a1.2,1.2,0,0,0-1.29.635c-.742,1.395-1.565,2.746-2.428,4.241" transform="translate(-192.953 -95.642)"/>
      <path id="Path_14" data-name="Path 14" class="cls-2" d="M262.464,85.875h22.149c-.348-.7-.633-1.338-.978-1.944-.506-.889-1.034-1.769-1.6-2.62a1.019,1.019,0,0,0-.71-.418q-7.784-.04-15.569-.011a.992.992,0,0,0-.721.385c-.788,1.255-1.533,2.537-2.278,3.819a5.427,5.427,0,0,0-.293.789" transform="translate(-210.766 -64.941)"/>
      <path id="Path_15" data-name="Path 15" class="cls-2" d="M77.83,345.065c.795,1.434,1.572,2.783,2.293,4.161a1.2,1.2,0,0,0,1.248.8c3.069-.045,6.14,0,9.211.006,1.99,0,3.98-.038,5.97-.018a1.158,1.158,0,0,0,1.076-.7c.708-1.243,1.378-2.508,2.07-3.761a3.977,3.977,0,0,1,.414-.488Z" transform="translate(-62.5 -277.096)"/>
      <path id="Path_16" data-name="Path 16" class="cls-2" d="M37.75,156.3c-.51.825-.932,1.483-1.328,2.156a24.55,24.55,0,0,0-1.245,2.259,1.37,1.37,0,0,0,0,1.078c1.06,1.876,2.193,3.71,3.279,5.572.69,1.182,1.329,2.394,2.009,3.583.82,1.434,1.647,2.865,2.5,4.278a.823.823,0,0,0,.607.3c1.692.024,3.385.013,5.271.013L37.75,156.3" transform="translate(-28.161 -125.516)"/>
      <path id="Path_17" data-name="Path 17" class="cls-2" d="M347.579,196.977l11.092,19.233c.42-.64.756-1.115,1.053-1.613.587-.986,1.168-1.976,1.71-2.987a.83.83,0,0,0-.1-.646c-1.113-2.006-2.23-4.01-3.374-6-1.059-1.84-2.155-3.658-3.232-5.487-.423-.719-.828-1.448-1.262-2.16-.087-.143-.266-.325-.4-.327-1.786-.022-3.573-.015-5.477-.015" transform="translate(-279.115 -158.177)"/>
      <path id="Path_18" data-name="Path 18" class="cls-2" d="M129.983,56.27l11.091-19.214h-2.592a13.108,13.108,0,0,1-1.989-.019,1.618,1.618,0,0,0-1.812,1.048q-1.878,3.394-3.8,6.765c-.969,1.706-1.963,3.4-2.95,5.093a4.109,4.109,0,0,1-.265.323,1.7,1.7,0,0,0-.048,2.085l2.364,3.919" transform="translate(-102.216 -29.72)"/>
      <path id="Path_19" data-name="Path 19" class="cls-2" d="M266.389,316.791,255.325,335.9c1.95,0,3.663.018,5.375-.021a.976.976,0,0,0,.671-.452c.911-1.575,1.763-3.184,2.672-4.76,1.075-1.863,2.193-3.7,3.286-5.554.61-1.036,1.227-2.068,1.789-3.13a.993.993,0,0,0-.032-.827c-.85-1.431-1.745-2.835-2.7-4.362" transform="translate(-205.033 -254.392)"/>
      <rect id="Rectangle_14" data-name="Rectangle 14" class="cls-3" width="96.397" height="96.408"/>
    </g>
    <text id="бурильна_компанія" data-name="бурильна
компанія" class="cls-4" transform="translate(403 71)"><tspan class="cls-5"><tspan x="-60.203" y="0">БУРИЛЬНА</tspan></tspan><tspan x="-58.643" y="29">КОМПАНІЯ</tspan></text>
  </g>
</svg>
