<svg width="97" height="97" viewBox="0 0 97 97" fill="none" xmlns="http://www.w3.org/2000/svg">
<path d="M59.966 13.637C59.16 12.226 58.416 10.918 57.666 9.613C57.274 8.931 56.891 8.244 56.466 7.587C56.3937 7.51114 56.3066 7.45096 56.2101 7.41019C56.1136 7.36942 56.0098 7.34893 55.905 7.35C54.257 7.331 52.605 7.311 50.962 7.362C50.7958 7.393 50.6379 7.45838 50.4984 7.55396C50.3589 7.64953 50.2409 7.77318 50.152 7.917C49.152 9.547 48.194 11.2 47.243 12.857C46.387 14.348 45.576 15.866 44.713 17.357C43.826 18.885 42.886 20.382 41.997 21.909C41.307 23.092 40.675 24.309 39.989 25.494C39.089 27.046 38.158 28.576 37.257 30.126C36.619 31.226 36.014 32.339 35.39 33.445C34.859 34.386 34.302 35.313 33.801 36.27C33.7436 36.3904 33.7121 36.5215 33.7085 36.6548C33.7048 36.7881 33.7292 36.9207 33.78 37.044C34.486 38.322 35.238 39.576 35.98 40.834C36.095 41.028 36.236 41.207 36.451 41.514C36.859 40.873 37.215 40.35 37.534 39.805C38.6947 37.8237 39.8477 35.8383 40.993 33.849C41.886 32.29 42.74 30.708 43.637 29.149C44.516 27.624 45.437 26.125 46.321 24.603C46.995 23.44 47.621 22.252 48.296 21.088C49.214 19.497 50.155 17.92 51.082 16.335C51.482 15.651 51.84 14.935 52.282 14.285C52.3753 14.1604 52.4932 14.0564 52.6284 13.9793C52.7636 13.9022 52.9133 13.8538 53.068 13.837C55.035 13.799 57.004 13.823 58.968 13.807C59.3036 13.7773 59.6364 13.7208 59.963 13.638" fill="#EB1C1C"/>
<path d="M29.15 75.028C29.534 75.787 29.83 76.436 30.183 77.05C30.634 77.834 31.142 78.583 31.606 79.36C31.8848 79.9189 32.1946 80.4617 32.534 80.986C32.7686 81.2693 33.1051 81.4489 33.471 81.486C34.945 81.538 36.43 81.419 37.896 81.541C38.818 81.618 38.985 80.977 39.296 80.468C40.296 78.809 41.263 77.125 42.227 75.442C43.083 73.942 43.903 72.43 44.77 70.942C45.655 69.42 46.596 67.931 47.478 66.407C48.141 65.262 48.736 64.079 49.385 62.926C50.034 61.773 50.715 60.647 51.369 59.501C51.914 58.546 52.419 57.568 52.977 56.621C53.686 55.421 54.422 54.236 55.165 53.056C55.3384 52.8346 55.44 52.5654 55.4561 52.2846C55.4722 52.0038 55.402 51.7248 55.255 51.485C54.408 50.096 53.555 48.709 52.683 47.279C51.9917 48.4877 51.298 49.7013 50.602 50.92C49.94 52.081 49.286 53.246 48.616 54.402C47.6927 55.996 46.763 57.586 45.827 59.172C44.736 61.03 43.633 62.881 42.551 64.745C41.902 65.863 41.293 67.004 40.651 68.123C39.92 69.39 39.161 70.641 38.426 71.906C37.9403 72.6845 37.497 73.4887 37.098 74.315C37.0244 74.5457 36.8733 74.7439 36.6702 74.8758C36.4672 75.0078 36.2247 75.0655 35.984 75.039C33.772 75.022 31.559 75.032 29.159 75.032" fill="#1A1818"/>
<path d="M38.024 50.064C37.366 48.858 36.797 47.777 36.193 46.717C35.521 45.537 34.815 44.376 34.128 43.205C33.2293 41.6717 32.3327 40.1403 31.438 38.611C30.751 37.428 30.08 36.236 29.393 35.053C28.482 33.483 27.557 31.921 26.651 30.353C25.968 29.167 25.311 27.966 24.63 26.779C23.949 25.592 23.29 24.415 22.567 23.266C22.3143 22.9675 22.1796 22.5869 22.1885 22.1959C22.1973 21.8049 22.3491 21.4307 22.615 21.144C23.084 20.452 23.483 19.713 23.894 18.984C24.482 17.941 25.052 16.889 25.656 15.794C25.4885 15.7505 25.3175 15.7214 25.145 15.707C22.981 15.72 20.817 15.759 18.653 15.75C17.982 15.75 17.921 16.315 17.701 16.675C16.939 17.918 16.244 19.204 15.539 20.481C15.4968 20.5514 15.4698 20.6298 15.4596 20.7113C15.4495 20.7927 15.4564 20.8754 15.48 20.954C16.3753 22.5333 17.284 24.105 18.206 25.669C19.095 27.169 20.029 28.642 20.906 30.148C21.606 31.348 22.235 32.594 22.929 33.799C23.809 35.326 24.729 36.828 25.619 38.351C26.294 39.511 26.93 40.695 27.602 41.857C28.523 43.448 29.466 45.026 30.391 46.614C30.991 47.65 31.57 48.702 32.191 49.728C32.2545 49.8192 32.3368 49.8957 32.4324 49.9525C32.5279 50.0092 32.6345 50.0448 32.745 50.057C34.44 50.082 36.135 50.072 38.024 50.072" fill="#1A1818"/>
<path d="M56.901 38.831H51.087C51.316 39.163 51.487 39.374 51.617 39.607C52.298 40.816 52.952 42.041 53.647 43.243C54.529 44.767 55.447 46.267 56.336 47.788C56.972 48.881 57.561 50.001 58.201 51.088C58.939 52.345 59.73 53.572 60.461 54.833C61.143 56.011 61.761 57.226 62.436 58.409C63.136 59.633 63.877 60.831 64.582 62.051C65.255 63.216 65.902 64.395 66.565 65.566C66.7122 65.7495 66.8352 65.9511 66.931 66.166C67.0357 66.4529 67.0438 66.7661 66.954 67.058C66.319 68.205 65.615 69.313 64.943 70.439C64.543 71.118 64.143 71.801 63.754 72.491C63.6729 72.6846 63.6106 72.8855 63.568 73.091C65.968 73.091 68.277 73.099 70.586 73.076C70.6992 73.0635 70.8084 73.027 70.9064 72.9689C71.0043 72.9107 71.0888 72.8324 71.154 72.739C71.954 71.408 72.762 70.074 73.487 68.699C73.5616 68.5164 73.5968 68.3201 73.5903 68.1229C73.5837 67.9258 73.5356 67.7322 73.449 67.555C72.142 65.212 70.774 62.903 69.437 60.577C68.237 58.483 67.048 56.377 65.845 54.284C64.867 52.582 63.881 50.885 62.887 49.193C61.832 47.402 60.74 45.632 59.7 43.833C58.752 42.194 57.85 40.528 56.9 38.833" fill="#EB1C1C"/>
<path d="M46.075 52.882H44.71C37.3807 52.882 30.0513 52.882 22.722 52.882C20.0447 52.882 17.3677 52.8847 14.691 52.89C14.352 52.89 14.085 52.9 13.861 52.49C13.016 50.958 12.098 49.466 11.205 47.961C11.035 47.675 10.866 47.387 10.672 47.117C10.189 46.445 10.216 46.468 9.79901 47.225C8.92901 48.804 8.02901 50.367 7.12301 51.925C6.9382 52.1988 6.83797 52.521 6.83477 52.8513C6.83157 53.1816 6.92554 53.5056 7.10501 53.783C7.83601 55.023 8.51501 56.294 9.24901 57.532C9.32133 57.6212 9.41176 57.6941 9.51432 57.7458C9.61689 57.7976 9.72926 57.8269 9.84401 57.832C10.456 57.849 11.07 57.771 11.683 57.774C13.821 57.786 15.959 57.839 18.097 57.836C21.412 57.836 24.728 57.782 28.043 57.773C30.107 57.768 32.171 57.821 34.235 57.815C36.735 57.808 39.235 57.768 41.735 57.742C41.93 57.7137 42.1282 57.7174 42.322 57.753C43.175 58.053 43.622 57.563 43.976 56.919C44.641 55.719 45.294 54.519 45.946 53.313C46.0009 53.1713 46.043 53.0251 46.072 52.876" fill="#EB1C1C"/>
<path d="M43.071 35.928H43.997C53.882 35.928 63.767 35.964 73.652 35.884C74.1522 35.8493 74.6501 35.979 75.0699 36.2534C75.4896 36.5278 75.8081 36.9318 75.977 37.404C76.677 38.704 77.472 39.963 78.216 41.245C78.426 41.607 78.603 41.99 78.863 42.496C79.994 40.503 80.997 38.65 82.09 36.852C82.3018 36.6044 82.4181 36.2893 82.4181 35.9635C82.4181 35.6377 82.3018 35.3226 82.09 35.075C81.304 33.937 80.721 32.66 80.02 31.461C79.8594 31.2692 79.653 31.121 79.42 31.03C79.32 30.978 79.179 31.019 79.056 31.019C68.212 31.019 57.368 31.0157 46.524 31.009C46.2754 30.9878 46.0265 31.0462 45.8132 31.1756C45.5998 31.305 45.4331 31.4988 45.337 31.729C44.652 32.992 43.888 34.211 43.166 35.454C43.1136 35.6072 43.084 35.7672 43.078 35.929" fill="#1A1818"/>
<path d="M75.219 65.562C75.508 65.1 75.746 64.734 75.971 64.362C76.504 63.477 77.051 62.599 77.555 61.697C77.7603 61.4529 77.8873 61.1526 77.9194 60.8353C77.9515 60.5179 77.8873 60.1983 77.735 59.918C76.595 58.041 75.505 56.134 74.409 54.23C73.742 53.07 73.115 51.887 72.443 50.73C71.579 49.244 70.68 47.779 69.81 46.296C69.326 45.471 68.879 44.623 68.399 43.796C67.578 42.5675 66.843 41.2838 66.199 39.954C65.715 38.76 64.932 38.754 63.938 38.782C62.638 38.824 61.338 38.792 59.765 38.792L75.219 65.563" fill="#1A1818"/>
<path d="M29.399 50.063L13.924 23.256C13.533 23.903 13.211 24.429 12.896 24.956C12.36 25.856 11.801 26.749 11.312 27.676C11.235 27.8199 11.1889 27.9783 11.1769 28.1411C11.1648 28.3038 11.187 28.4673 11.242 28.621C12.289 30.466 13.408 32.271 14.473 34.106C15.556 35.973 16.59 37.868 17.673 39.738C18.545 41.249 19.464 42.738 20.34 44.238C21.026 45.418 21.678 46.619 22.347 47.809C22.733 48.496 23.109 49.19 23.527 49.857C23.5944 49.9218 23.6743 49.9721 23.7618 50.005C23.8493 50.0378 23.9426 50.0525 24.036 50.048C25.754 50.062 27.473 50.056 29.403 50.056" fill="#1A1818"/>
<path d="M32.101 34.093L47.538 7.34C45.655 7.34 43.869 7.332 42.083 7.354C41.992 7.37114 41.9057 7.40748 41.8298 7.46059C41.754 7.5137 41.6903 7.58236 41.643 7.662C40.675 9.31 39.736 10.975 38.769 12.624C37.662 14.513 36.525 16.383 35.42 18.274C34.734 19.449 34.097 20.653 33.42 21.832C32.525 23.38 31.604 24.912 30.703 26.457C30.2728 27.1476 29.8809 27.8614 29.529 28.595C29.4571 28.7658 29.42 28.9492 29.42 29.1345C29.42 29.3198 29.4571 29.5032 29.529 29.674C30.329 31.129 31.193 32.545 32.107 34.094" fill="#1A1818"/>
<path d="M57.064 54.843L41.598 81.501C43.525 81.501 45.27 81.518 47.013 81.48C47.1434 81.4499 47.2661 81.393 47.3734 81.3129C47.4806 81.2329 47.57 81.1314 47.636 81.015C48.5693 79.473 49.482 77.92 50.374 76.356C50.851 75.523 51.262 74.656 51.745 73.822C52.666 72.241 53.63 70.687 54.551 69.106C55.262 67.887 55.924 66.639 56.625 65.414C57.652 63.614 58.702 61.835 59.719 60.033C59.7616 59.9361 59.7828 59.8312 59.7811 59.7254C59.7793 59.6196 59.7548 59.5154 59.709 59.42C58.851 57.9 57.965 56.395 57.063 54.844" fill="#1A1818"/>
<path d="M10.966 60.48C11.281 61.053 11.513 61.488 11.759 61.916C12.293 62.845 12.875 63.75 13.359 64.705C13.4395 64.9289 13.5921 65.1197 13.7929 65.2475C13.9936 65.3753 14.2311 65.4328 14.468 65.411C22.388 65.391 30.3077 65.391 38.227 65.411C38.4996 65.4348 38.7723 65.367 39.002 65.2183C39.2317 65.0696 39.4052 64.8485 39.495 64.59C40.117 63.363 40.863 62.198 41.551 61.004C41.6054 60.8663 41.6446 60.7232 41.668 60.577C41.398 60.561 41.168 60.561 40.937 60.532C39.267 60.324 37.598 60.586 35.929 60.532C34.034 60.473 32.139 60.355 30.245 60.363C27.336 60.375 24.427 60.505 21.518 60.524C18.31 60.545 15.101 60.499 11.892 60.482C11.649 60.482 11.406 60.482 10.969 60.482" fill="#1A1818"/>
<path d="M47.329 28.336H78.173C77.552 27.228 76.98 26.188 76.389 25.16C76.1069 24.781 75.8561 24.3796 75.639 23.96C75.455 23.46 75.133 23.467 74.724 23.467C66.8313 23.473 58.9387 23.471 51.046 23.461C50.7912 23.4133 50.5279 23.4494 50.2954 23.5639C50.0628 23.6784 49.8736 23.865 49.756 24.096C49.014 25.491 48.191 26.842 47.328 28.337" fill="#1A1818"/>
<path d="M51.698 20.934H73.847C73.499 20.234 73.214 19.596 72.869 18.99C72.363 18.101 71.835 17.221 71.269 16.37C71.1863 16.2547 71.0804 16.158 70.9581 16.086C70.8359 16.0141 70.6999 15.9684 70.559 15.952C65.3697 15.9253 60.18 15.9217 54.99 15.941C54.8494 15.9503 54.7123 15.9894 54.588 16.0558C54.4637 16.1222 54.3549 16.2143 54.269 16.326C53.481 17.581 52.736 18.863 51.991 20.145C51.8731 20.4 51.7751 20.6638 51.698 20.934Z" fill="#1A1818"/>
<path d="M15.33 67.969C16.125 69.403 16.902 70.752 17.623 72.13C17.7114 72.3839 17.8824 72.6007 18.1087 72.7457C18.335 72.8908 18.6035 72.9557 18.871 72.93C21.94 72.885 25.011 72.93 28.082 72.936C30.072 72.936 32.062 72.898 34.052 72.918C34.2804 72.9205 34.5044 72.8553 34.6959 72.7308C34.8873 72.6062 35.0377 72.4278 35.128 72.218C35.836 70.975 36.506 69.71 37.198 68.457C37.3227 68.2835 37.4611 68.1203 37.612 67.969H15.33Z" fill="#1A1818"/>
<path d="M9.589 30.784C9.079 31.609 8.657 32.267 8.261 32.94C7.8067 33.6707 7.39113 34.4247 7.016 35.199C6.9431 35.3693 6.90552 35.5527 6.90552 35.738C6.90552 35.9233 6.9431 36.1067 7.016 36.277C8.076 38.153 9.209 39.987 10.295 41.849C10.985 43.031 11.624 44.243 12.304 45.432C13.124 46.866 13.951 48.297 14.804 49.71C14.8781 49.8002 14.9706 49.8736 15.0752 49.9253C15.1799 49.977 15.2943 50.0059 15.411 50.01C17.103 50.034 18.796 50.023 20.682 50.023L9.589 30.784Z" fill="#1A1818"/>
<path d="M68.464 38.8L79.556 58.033C79.976 57.393 80.312 56.918 80.609 56.42C81.196 55.434 81.777 54.444 82.319 53.433C82.3469 53.3242 82.3525 53.2108 82.3353 53.0997C82.3181 52.9887 82.2786 52.8823 82.219 52.787C81.106 50.781 79.989 48.777 78.845 46.787C77.786 44.947 76.69 43.129 75.613 41.3C75.19 40.581 74.785 39.852 74.351 39.14C74.264 38.997 74.085 38.815 73.951 38.813C72.165 38.791 70.378 38.798 68.474 38.798" fill="#1A1818"/>
<path d="M27.767 26.55L38.858 7.336H36.266C35.6035 7.38005 34.9386 7.3737 34.277 7.317C33.8998 7.24871 33.5106 7.31657 33.1787 7.50851C32.8469 7.70044 32.5939 8.00397 32.465 8.365C31.213 10.6277 29.9463 12.8827 28.665 15.13C27.696 16.836 26.702 18.53 25.715 20.223C25.6322 20.3351 25.5438 20.4429 25.45 20.546C25.2116 20.8388 25.0774 21.2027 25.0687 21.5803C25.06 21.9578 25.1773 22.3275 25.402 22.631L27.766 26.55" fill="#1A1818"/>
<path d="M61.356 62.399L50.292 81.508C52.242 81.508 53.955 81.526 55.667 81.487C55.8047 81.464 55.9358 81.4118 56.0515 81.3338C56.1673 81.2558 56.265 81.1539 56.338 81.035C57.249 79.46 58.101 77.851 59.01 76.275C60.085 74.412 61.203 72.575 62.296 70.721C62.906 69.685 63.523 68.653 64.085 67.591C64.1395 67.459 64.1648 67.3167 64.1593 67.174C64.1537 67.0313 64.1175 66.8914 64.053 66.764C63.203 65.333 62.308 63.929 61.353 62.402" fill="#1A1818"/>
</svg>
